<svg width="72" height="66" viewBox="0 0 72 66" fill="none" xmlns="http://www.w3.org/2000/svg">
<g clip-path="url(#clip0_2011_169)">
<path d="M70.6368 51.7532C70.7047 54.1324 70.0257 56.3848 68.8035 58.3199C68.1244 59.4619 67.2077 60.5088 66.1892 61.3653C63.8465 63.3956 60.7569 64.6328 57.3278 64.728C52.3709 64.8232 47.9911 62.4439 45.5806 58.7957C44.2904 56.9241 43.5095 54.6717 43.4756 52.2925C43.3737 48.2954 45.275 44.6789 48.3307 42.2997C50.6394 40.5232 53.5592 39.4129 56.7506 39.3494C58.5342 39.3115 60.3083 39.6023 61.9715 40.2052C63.6347 40.8081 65.1545 41.7113 66.4441 42.8632C67.7336 44.0151 68.7676 45.393 69.4871 46.9184C70.2065 48.4438 70.5972 50.0867 70.6368 51.7532Z" stroke="white" stroke-width="1.5" stroke-miterlimit="10" stroke-linecap="round" stroke-linejoin="round"/>
<path d="M52.5396 52.2382L55.9698 55.2478L63.0679 48.9151M4.07544 19.0385L34.0641 35.0583L63.849 19.1325M34.0641 63.4615V35.027" stroke="white" stroke-width="1.5" stroke-linecap="round" stroke-linejoin="round"/>
<path d="M66.5659 24.0202V41.9798C66.5659 42.1385 66.5659 42.2654 66.532 42.424C64.1571 40.4885 61.1037 39.3462 57.711 39.3462C54.5219 39.3462 51.5702 40.3933 49.2293 42.1385C47.6368 43.3221 46.3516 44.8277 45.4702 46.5423C44.5888 48.2569 44.1341 50.136 44.1402 52.0385C44.1402 54.4183 44.8527 56.6712 46.108 58.575C46.4134 59.0827 46.7865 59.5587 47.1937 60.0029L40.985 63.2077C37.1174 65.2385 30.807 65.2385 26.9393 63.2077L8.82232 53.8154C4.71716 51.6894 1.3584 46.3587 1.3584 41.9798V24.0202C1.3584 19.6413 4.71716 14.3106 8.82232 12.1846L26.9393 2.7923C30.807 0.761534 37.1174 0.761534 40.985 2.7923L59.102 12.1846C63.2072 14.3106 66.5659 19.6413 66.5659 24.0202Z" stroke="white" stroke-width="1.5" stroke-linecap="round" stroke-linejoin="round"/>
</g>
<defs>
<clipPath id="clip0_2011_169">
<rect width="72" height="66" fill="white"/>
</clipPath>
</defs>
</svg>
