<svg width="72" height="72" viewBox="0 0 72 72" fill="none" xmlns="http://www.w3.org/2000/svg">
<path d="M24 18V15.6C24 10.29 24 6 33.6 6H38.4C48 6 48 10.29 48 15.6V18M24 66H48C60.06 66 62.22 61.17 62.85 55.29L65.1 31.29C65.91 23.97 63.81 18 51 18H21C8.18997 18 6.08997 23.97 6.89997 31.29L9.14997 55.29C9.77997 61.17 11.94 66 24 66Z" stroke="white" stroke-width="1.5" stroke-miterlimit="10" stroke-linecap="round" stroke-linejoin="round"/>
<path d="M42.0001 42.06V39C42.0001 36 42.0001 36 39.0001 36H33.0001C30.0001 36 30.0001 36 30.0001 39V42.09M42.0001 42.06C42.0001 45.33 41.9701 48 36.0001 48C30.0601 48 30.0001 45.36 30.0001 42.09M42.0001 42.06C50.2927 41.0276 58.1885 37.9106 64.9501 33M30.0001 42.09C22.2301 41.22 14.6101 38.43 7.86011 33.81" stroke="white" stroke-width="1.5" stroke-miterlimit="10" stroke-linecap="round" stroke-linejoin="round"/>
</svg>
