<svg width="128" height="127" viewBox="0 0 128 127" fill="none" xmlns="http://www.w3.org/2000/svg">
<path d="M27 102L11 86.0315H27L11 69.4488H27L11 53.4803H27L11 38.126H27L11 24" stroke="#5072A9" stroke-width="2"/>
<rect x="1" y="103" width="36" height="8" stroke="#5072A9" stroke-width="2"/>
<rect x="2" y="17" width="37" height="7" stroke="#5072A9" stroke-width="2"/>
<rect x="11" y="25" width="18" height="78" stroke="#5072A9" stroke-width="2"/>
<rect x="2" y="8" width="105" height="9" stroke="#5072A9" stroke-width="2"/>
<path d="M75 16V20" stroke="#5072A9" stroke-width="2"/>
<rect x="71" y="21" width="8" height="12" stroke="#5072A9" stroke-width="2"/>
<path d="M75 33V38" stroke="#5072A9" stroke-width="2"/>
<mask id="path-9-inside-1_2011_54" fill="white">
<path d="M74.8526 36.251C76.1259 35.8769 77.4862 35.9247 78.7301 36.3874C79.9741 36.8501 81.0349 37.7028 81.7542 38.8182C82.4735 39.9336 82.8127 41.2518 82.721 42.5758C82.6293 43.8998 82.1117 45.1587 81.2455 46.1643C80.3794 47.1699 79.2111 47.8683 77.9153 48.1551C76.6194 48.4419 75.2656 48.3018 74.0559 47.7557C72.8463 47.2096 71.8458 46.2868 71.2039 45.1252C70.562 43.9635 70.3131 42.6254 70.4945 41.3106L71.9474 41.5111C71.8093 42.5122 71.9988 43.5312 72.4876 44.4158C72.9764 45.3004 73.7383 46.0031 74.6594 46.419C75.5806 46.8348 76.6115 46.9415 77.5983 46.7231C78.5851 46.5047 79.4747 45.9728 80.1343 45.2071C80.7938 44.4413 81.188 43.4827 81.2578 42.4745C81.3276 41.4663 81.0693 40.4625 80.5216 39.6131C79.9739 38.7638 79.166 38.1144 78.2188 37.7621C77.2715 37.4097 76.2357 37.3733 75.2661 37.6582L74.8526 36.251Z"/>
</mask>
<path d="M74.8526 36.251C76.1259 35.8769 77.4862 35.9247 78.7301 36.3874C79.9741 36.8501 81.0349 37.7028 81.7542 38.8182C82.4735 39.9336 82.8127 41.2518 82.721 42.5758C82.6293 43.8998 82.1117 45.1587 81.2455 46.1643C80.3794 47.1699 79.2111 47.8683 77.9153 48.1551C76.6194 48.4419 75.2656 48.3018 74.0559 47.7557C72.8463 47.2096 71.8458 46.2868 71.2039 45.1252C70.562 43.9635 70.3131 42.6254 70.4945 41.3106L71.9474 41.5111C71.8093 42.5122 71.9988 43.5312 72.4876 44.4158C72.9764 45.3004 73.7383 46.0031 74.6594 46.419C75.5806 46.8348 76.6115 46.9415 77.5983 46.7231C78.5851 46.5047 79.4747 45.9728 80.1343 45.2071C80.7938 44.4413 81.188 43.4827 81.2578 42.4745C81.3276 41.4663 81.0693 40.4625 80.5216 39.6131C79.9739 38.7638 79.166 38.1144 78.2188 37.7621C77.2715 37.4097 76.2357 37.3733 75.2661 37.6582L74.8526 36.251Z" stroke="#5072A9" stroke-width="4" mask="url(#path-9-inside-1_2011_54)"/>
<rect x="43" y="59" width="63" height="33" stroke="#5072A9" stroke-width="2"/>
<path d="M42 57.4211L76.1333 47L106 58" stroke="#5072A9" stroke-width="2"/>
<line x1="52" y1="86" x2="52" y2="66" stroke="#5072A9" stroke-width="2"/>
<line x1="60" y1="86" x2="60" y2="66" stroke="#5072A9" stroke-width="2"/>
<line x1="66" y1="86" x2="66" y2="66" stroke="#5072A9" stroke-width="2"/>
<line x1="74" y1="86" x2="74" y2="66" stroke="#5072A9" stroke-width="2"/>
<line x1="82" y1="86" x2="82" y2="66" stroke="#5072A9" stroke-width="2"/>
<line x1="89" y1="86" x2="89" y2="66" stroke="#5072A9" stroke-width="2"/>
<line x1="96" y1="86" x2="96" y2="66" stroke="#5072A9" stroke-width="2"/>
</svg>
