<svg width="121" height="75" viewBox="0 0 121 75" fill="none" xmlns="http://www.w3.org/2000/svg">
<rect x="1" y="20.75" width="119" height="5" rx="1" stroke="#5072A9" stroke-width="2"/>
<rect x="9" y="61.75" width="106" height="3" rx="1" stroke="#5072A9" stroke-width="2"/>
<rect x="4" y="25.75" width="114" height="36" rx="1" stroke="#5072A9" stroke-width="2"/>
<path d="M5.5 20.75L11.5 14.75L18 16.25L30 8.75L41.5 12.75L55.5 2.25L65 11.75L76.5 8.75L86.5 14.75L94 11.75L99.5 16.25L117 20.75" stroke="#5072A9" stroke-width="2"/>
<circle cx="15" cy="69.75" r="4" stroke="#5072A9" stroke-width="2"/>
<circle cx="96" cy="68.75" r="4" stroke="#5072A9" stroke-width="2"/>
<circle cx="27" cy="69.75" r="4" stroke="#5072A9" stroke-width="2"/>
<circle cx="108" cy="68.75" r="4" stroke="#5072A9" stroke-width="2"/>
<path d="M8 61.75V25.75" stroke="#5072A9" stroke-width="2"/>
<path d="M31 61.75V25.75" stroke="#5072A9" stroke-width="2"/>
<path d="M36 61.75V25.75" stroke="#5072A9" stroke-width="2"/>
<path d="M58 61.75V25.75" stroke="#5072A9" stroke-width="2"/>
<path d="M63 61.75V25.75" stroke="#5072A9" stroke-width="2"/>
<path d="M86 61.75V25.75" stroke="#5072A9" stroke-width="2"/>
<path d="M91 61.75V25.75" stroke="#5072A9" stroke-width="2"/>
<path d="M114 61.75V25.75" stroke="#5072A9" stroke-width="2"/>
<path d="M8.5 34.75H30" stroke="#5072A9" stroke-width="2"/>
<path d="M36 34.75H57.5" stroke="#5072A9" stroke-width="2"/>
<path d="M64 34.75H85.5" stroke="#5072A9" stroke-width="2"/>
<path d="M92 34.75H113.5" stroke="#5072A9" stroke-width="2"/>
<path d="M9 38.75H30.5" stroke="#5072A9" stroke-width="2"/>
<path d="M36.5 38.75H58" stroke="#5072A9" stroke-width="2"/>
<path d="M63.5 38.75H85" stroke="#5072A9" stroke-width="2"/>
<path d="M91.5 38.75H113" stroke="#5072A9" stroke-width="2"/>
<path d="M9 48.75H30.5" stroke="#5072A9" stroke-width="2"/>
<path d="M36.5 48.75H58" stroke="#5072A9" stroke-width="2"/>
<path d="M63.5 48.75H85" stroke="#5072A9" stroke-width="2"/>
<path d="M91.5 48.75H113" stroke="#5072A9" stroke-width="2"/>
<path d="M9 52.75H30.5" stroke="#5072A9" stroke-width="2"/>
<path d="M36.5 52.75H58" stroke="#5072A9" stroke-width="2"/>
<path d="M63.5 52.75H85" stroke="#5072A9" stroke-width="2"/>
<path d="M91.5 52.75H113" stroke="#5072A9" stroke-width="2"/>
</svg>
