<svg width="74" height="64" viewBox="0 0 74 64" fill="none" xmlns="http://www.w3.org/2000/svg">
<path d="M1 63.0581H73M62.4618 63.0909V48.4945M4.6 63.0581V10.7927C4.6 4.21451 7.87273 0.909058 14.3855 0.909058H34.7745C41.2873 0.909058 44.5273 4.21451 44.5273 10.7927V63.0581M16.7091 18.0581H32.9091M16.7091 30.3309H32.9091M24.7273 63.0581V50.7854M62.5273 26.6981C58.5345 26.6981 55.3273 29.9054 55.3273 33.8981V41.3272C55.3273 45.32 58.5345 48.5272 62.5273 48.5272C66.52 48.5272 69.7273 45.32 69.7273 41.3272V33.8981C69.7273 29.9054 66.52 26.6981 62.5273 26.6981Z" stroke="white" stroke-width="1.5" stroke-miterlimit="10" stroke-linecap="round" stroke-linejoin="round"/>
</svg>
